<?xml version="1.0" encoding="UTF-8" standalone="no"?>
<!-- Created with Inkscape (http://www.inkscape.org/) -->

<svg
   xmlns:dc="http://purl.org/dc/elements/1.1/"
   xmlns:cc="http://creativecommons.org/ns#"
   xmlns:rdf="http://www.w3.org/1999/02/22-rdf-syntax-ns#"
   xmlns:svg="http://www.w3.org/2000/svg"
   xmlns="http://www.w3.org/2000/svg"
   xmlns:sodipodi="http://sodipodi.sourceforge.net/DTD/sodipodi-0.dtd"
   xmlns:inkscape="http://www.inkscape.org/namespaces/inkscape"
   width="161.07315mm"
   height="172.83237mm"
   viewBox="0 0 161.07314 172.83237"
   version="1.1"
   id="svg8"
   inkscape:version="0.92.4 (5da689c313, 2019-01-14)"
   sodipodi:docname="Chillwatcher-Logo-6.svg"
   inkscape:export-filename="F:\Git - Projekte\Chillwatcher\img\Logo\Chillwatcher-Logo-Quadrat-Kreis-3.png"
   inkscape:export-xdpi="96"
   inkscape:export-ydpi="96">
  <defs
     id="defs2" />
  <sodipodi:namedview
     id="base"
     pagecolor="#ffffff"
     bordercolor="#666666"
     borderopacity="1.0"
     inkscape:pageopacity="0.0"
     inkscape:pageshadow="2"
     inkscape:zoom="0.49497475"
     inkscape:cx="-36.309456"
     inkscape:cy="311.78918"
     inkscape:document-units="mm"
     inkscape:current-layer="layer1"
     showgrid="false"
     inkscape:window-width="1920"
     inkscape:window-height="1046"
     inkscape:window-x="-11"
     inkscape:window-y="-11"
     inkscape:window-maximized="1"
     inkscape:snap-grids="true"
     showguides="false"
     inkscape:guide-bbox="true">
    <inkscape:grid
       type="xygrid"
       id="grid5221"
       originx="-53.189233"
       originy="-7.0319359" />
  </sodipodi:namedview>
  <metadata
     id="metadata5">
    <rdf:RDF>
      <cc:Work
         rdf:about="">
        <dc:format>image/svg+xml</dc:format>
        <dc:type
           rdf:resource="http://purl.org/dc/dcmitype/StillImage" />
        <dc:title></dc:title>
      </cc:Work>
    </rdf:RDF>
  </metadata>
  <g
     inkscape:label="Ebene 1"
     inkscape:groupmode="layer"
     id="layer1"
     style="display:inline"
     transform="translate(-53.204971,-20.964634)">
    <flowRoot
       xml:space="preserve"
       id="flowRoot3721"
       style="font-style:normal;font-weight:normal;font-size:40px;line-height:1.25;font-family:sans-serif;letter-spacing:0px;word-spacing:0px;fill:#000000;fill-opacity:1;stroke:none"
       transform="scale(0.26458333)"><flowRegion
         id="flowRegion3723"><rect
           id="rect3725"
           width="248.57143"
           height="248.57143"
           x="122.85714"
           y="116.8054" /></flowRegion><flowPara
         id="flowPara3727"
         style="font-size:192px">CW</flowPara></flowRoot>    <rect
       style="fill:#ffffff;fill-opacity:1;stroke:none;stroke-width:13.13821793;stroke-miterlimit:4;stroke-dasharray:none;stroke-opacity:1"
       id="rect4563-3"
       width="107.36805"
       height="14.946193"
       x="53.204971"
       y="20.964781"
       inkscape:export-xdpi="96"
       inkscape:export-ydpi="96" />
    <rect
       style="fill:#ffffff;fill-opacity:1;stroke:none;stroke-width:13.23152542;stroke-miterlimit:4;stroke-dasharray:none;stroke-opacity:1"
       id="rect4563-3-2"
       width="108.89853"
       height="14.946195"
       x="53.204971"
       y="178.8508"
       inkscape:export-xdpi="96"
       inkscape:export-ydpi="96" />
    <path
       id="rect4563-2-1"
       style="fill:#ffffff;fill-opacity:1;stroke:none;stroke-width:15.28742981;stroke-miterlimit:4;stroke-dasharray:none;stroke-opacity:1"
       d="m 75.98391,39.311946 v 36.686747 c 0.03636,-0.02488 0.07185,-0.0512 0.10881,-0.07513 0.334824,-0.216888 0.686719,-0.407942 1.011693,-0.639441 0.126805,-0.09032 0.439437,-0.433485 0.563388,-0.565884 2.246989,-1.824653 4.523876,-3.61379 6.81978,-5.376674 1.888836,-1.369977 3.792592,-2.725092 5.60721,-4.194467 0.620581,-0.502512 1.235788,-1.011803 1.851806,-1.520053 V 39.311946 Z m 15.962684,30.724226 c -1.455503,1.12394 -2.949434,2.198419 -4.439106,3.274972 -1.524159,1.169387 -3.04178,2.348651 -4.546344,3.543467 -0.577561,0.458655 -1.145387,0.929717 -1.72103,1.3908 -0.04905,0.03929 -0.09255,0.128044 -0.152742,0.11034 -0.0025,-8.07e-4 -0.0029,-0.0022 -0.0047,-0.0031 -0.461043,0.460265 -0.688143,0.699498 -1.328697,1.159612 -0.382951,0.275078 -2.103423,1.301072 -2.402642,1.468563 -0.04448,0.02492 0.07218,-0.07216 0.108282,-0.108246 -0.430443,0.304636 -0.861114,0.609078 -1.291557,0.913714 -0.06147,0.04677 -0.122671,0.094 -0.184136,0.140812 v 10.743362 c 0.135731,-0.09244 0.257485,-0.177003 0.401749,-0.274271 0.697954,-0.470594 1.420013,-0.904884 2.116502,-1.377664 0.171339,-0.116315 0.316422,-0.268592 0.485446,-0.388289 0.8037,-0.569152 1.69453,-1.009292 2.453382,-1.645631 0.631193,-0.420668 1.264975,-0.837097 1.893656,-1.261545 0.908807,-0.613575 1.014055,-0.732108 2.046926,-1.447547 0.745893,-0.516655 1.443996,-0.925861 2.113887,-1.540019 0.60441,-0.451211 1.878245,-1.419541 2.662103,-1.940395 0.370623,-0.409248 0.339204,-0.362252 0.831744,-0.811781 0.498827,-0.33766 0.723766,-0.497329 0.790943,-0.538035 0.0559,-0.132015 0.105258,-0.242388 0.166348,-0.391444 z m -0.178388,11.437974 c -0.08018,0.08051 -0.334113,0.309687 -0.568618,0.606866 -0.260099,0.329612 -0.413985,1.705517 0.568618,-0.606866 z m 0.178388,6.163234 c -0.03437,0.02461 0.268144,-0.203105 -1.483016,1.106021 -0.716413,0.646811 -1.529513,1.137624 -2.31999,1.68609 -1.24339,0.862711 -0.879432,0.657507 -1.975262,1.398153 -0.656166,0.443489 -1.317481,0.879322 -1.976305,1.318818 -2.75332,1.854962 -5.476292,3.685988 -8.208111,5.627299 v 76.651089 h 15.962684 z"
       inkscape:export-xdpi="96"
       inkscape:export-ydpi="96"
       inkscape:connector-curvature="0" />
    <path
       id="rect4563-2-1-6"
       style="fill:#ffffff;fill-opacity:1;stroke:none;stroke-width:11.73784637;stroke-miterlimit:4;stroke-dasharray:none;stroke-opacity:1"
       d="m 137.15005,107.34712 -56.49059,56.74064 11.287134,11.33709 56.490586,-56.74064 z"
       inkscape:export-xdpi="96"
       inkscape:export-ydpi="96"
       inkscape:connector-curvature="0" />
    <path
       id="rect4563-3-5"
       style="fill:#ffffff;fill-opacity:1;stroke:none;stroke-width:16.63229561;stroke-miterlimit:4;stroke-dasharray:none;stroke-opacity:1"
       d="m 53.205108,20.964634 v 72.314234 c 1.210265,-1.066677 2.523587,-2.181712 3.740755,-3.219805 l 1.282143,-1.035085 c 0.03084,-0.03645 0.0608,-0.142797 0.0926,-0.11034 -0.0012,-0.0016 -0.0024,-0.0031 -0.0036,-0.0047 -0.137024,-0.185199 0.368759,-0.472424 0.578036,-0.377255 0.354589,0.161249 0.688886,0.371232 1.01431,0.601613 -0.125239,-1.808216 0.594294,-1.90565 2.892793,-3.583924 1.786841,-1.254365 3.541113,-2.55504 5.283407,-3.872383 V 20.964634 Z m 6.704172,68.168633 c 0.02965,0.428006 0.107826,0.962074 0.222844,1.62619 0.600339,0.536182 1.198028,1.074889 1.679704,1.713933 0.102963,0.136605 -0.03025,0.254724 -0.266263,0.36307 -0.07375,0.316278 -0.904867,0.709793 -0.962522,0.395119 -0.0047,-0.02572 -0.0075,-0.04125 -0.01202,-0.06674 -0.676987,0.207397 -1.217796,0.413399 -0.405933,0.702496 -1.19163,1.016292 -2.401576,2.010843 -3.581208,3.041159 -0.428092,0.373906 -0.765933,0.911192 -1.260694,1.228445 -0.114675,0.08814 -0.247741,0.152505 -0.353099,0.251676 -0.495708,0.466627 -0.907039,0.946955 -1.546835,1.240005 -0.04732,0.03366 -0.13706,0.114675 -0.189888,0.154472 -0.0097,0.0095 -0.01861,0.0173 -0.02825,0.02679 v 9.945238 c 1.365032,-0.96785 2.705656,-1.97145 4.073976,-2.93503 1.330271,-1.05292 1.307127,-1.05104 2.880239,-2.20625 0.466368,-0.34248 0.953898,-0.65546 1.41135,-1.00987 0.113073,-0.0876 0.192589,-0.21271 0.295556,-0.3121 0.328389,-0.31699 0.652519,-0.63884 0.998094,-0.93683 0.605671,-0.52227 1.235989,-1.01509 1.853899,-1.52268 4.755759,-3.592824 0.611878,-0.508 3.367256,-2.467923 V 87.895352 c -0.781422,0.571802 -1.566548,1.138465 -2.3587,1.695024 -0.756247,0.552174 -1.344706,1.799298 -2.268725,1.656138 -1.362563,-0.211108 -2.396136,-1.297261 -3.548775,-2.11326 z m 0.222844,1.62619 c -0.122853,-0.109721 -0.244543,-0.220176 -0.3667,-0.330494 0.127352,0.132889 0.25491,0.265517 0.378732,0.4009 -0.004,-0.0234 -0.008,-0.04732 -0.01202,-0.07041 z m -0.3667,-0.330494 c -0.483704,-0.504786 -0.981955,-0.999129 -1.443782,-1.515325 -3.48e-4,-2.7e-4 -6.96e-4,2.69e-4 -10e-4,0 0.416278,0.561462 0.923444,1.044477 1.44483,1.515325 z m 8.320056,14.108187 c -0.258371,0.19645 0.0017,-7e-5 -0.374024,0.28478 -0.564831,0.4657 -1.1406,0.91816 -1.694351,1.39711 -0.279117,0.2414 -0.502822,0.54545 -0.792512,0.77394 -1.608117,1.26845 -3.26042,2.47534 -4.864394,3.74839 -2.258888,1.6233 -4.47594,3.30631 -6.816639,4.80974 0.991384,-1.2455 0.38856,-0.73693 -0.338452,-0.0673 v 78.31301 H 68.08548 Z"
       inkscape:export-xdpi="96"
       inkscape:export-ydpi="96"
       inkscape:connector-curvature="0" />
    <rect
       style="fill:#ffffff;fill-opacity:1;stroke:none;stroke-width:4.94589901;stroke-miterlimit:4;stroke-dasharray:none;stroke-opacity:1"
       id="rect4563-2-1-9"
       width="15.962523"
       height="14.246942"
       x="137.14986"
       y="107.34724"
       inkscape:export-xdpi="96"
       inkscape:export-ydpi="96" />
    <rect
       style="display:inline;fill:#ffffff;fill-opacity:1;stroke:none;stroke-width:11.73790359;stroke-miterlimit:4;stroke-dasharray:none;stroke-opacity:1"
       id="rect4563-2-1-6-3"
       width="15.99789"
       height="80.066521"
       x="16.769903"
       y="184.24556"
       transform="matrix(0.70554356,-0.70866656,0.70554356,0.70866656,0,0)"
       inkscape:export-xdpi="96"
       inkscape:export-ydpi="96" />
    <rect
       style="display:inline;fill:#ffffff;fill-opacity:1;stroke:none;stroke-width:15.28743172;stroke-miterlimit:4;stroke-dasharray:none;stroke-opacity:1"
       id="rect4563-2-1-98"
       width="15.962523"
       height="136.11319"
       x="198.3156"
       y="39.311695"
       inkscape:export-xdpi="96"
       inkscape:export-ydpi="96" />
  </g>
</svg>
