<?xml version="1.0" encoding="UTF-8" standalone="no"?>
<!-- Created with Inkscape (http://www.inkscape.org/) -->

<svg
   xmlns:dc="http://purl.org/dc/elements/1.1/"
   xmlns:cc="http://creativecommons.org/ns#"
   xmlns:rdf="http://www.w3.org/1999/02/22-rdf-syntax-ns#"
   xmlns:svg="http://www.w3.org/2000/svg"
   xmlns="http://www.w3.org/2000/svg"
   xmlns:sodipodi="http://sodipodi.sourceforge.net/DTD/sodipodi-0.dtd"
   xmlns:inkscape="http://www.inkscape.org/namespaces/inkscape"
   width="159.11938mm"
   height="169.98355mm"
   viewBox="0 0 159.11938 169.98355"
   version="1.1"
   id="svg8"
   inkscape:version="0.92.4 (5da689c313, 2019-01-14)"
   sodipodi:docname="Chillwatcher-Logo-4.svg"
   inkscape:export-filename="F:\Git - Projekte\Chillwatcher\img\Logo\Chillwatcher-Logo-3.png"
   inkscape:export-xdpi="96"
   inkscape:export-ydpi="96">
  <defs
     id="defs2" />
  <sodipodi:namedview
     id="base"
     pagecolor="#ffffff"
     bordercolor="#666666"
     borderopacity="1.0"
     inkscape:pageopacity="0.0"
     inkscape:pageshadow="2"
     inkscape:zoom="0.7"
     inkscape:cx="326.23877"
     inkscape:cy="285.49959"
     inkscape:document-units="mm"
     inkscape:current-layer="layer1"
     showgrid="false"
     inkscape:window-width="1920"
     inkscape:window-height="1046"
     inkscape:window-x="-11"
     inkscape:window-y="-11"
     inkscape:window-maximized="1"
     inkscape:snap-grids="true" />
  <metadata
     id="metadata5">
    <rdf:RDF>
      <cc:Work
         rdf:about="">
        <dc:format>image/svg+xml</dc:format>
        <dc:type
           rdf:resource="http://purl.org/dc/dcmitype/StillImage" />
        <dc:title />
      </cc:Work>
    </rdf:RDF>
  </metadata>
  <g
     inkscape:label="Ebene 1"
     inkscape:groupmode="layer"
     id="layer1"
     style="display:inline"
     transform="translate(-9.0871639,-15.297774)">
    <flowRoot
       xml:space="preserve"
       id="flowRoot3721"
       style="font-style:normal;font-weight:normal;font-size:40px;line-height:1.25;font-family:sans-serif;letter-spacing:0px;word-spacing:0px;fill:#000000;fill-opacity:1;stroke:none"
       transform="scale(0.26458333)"><flowRegion
         id="flowRegion3723"><rect
           id="rect3725"
           width="248.57143"
           height="248.57143"
           x="122.85714"
           y="116.8054" /></flowRegion><flowPara
         id="flowPara3727"
         style="font-size:192px">CW</flowPara></flowRoot>    <rect
       style="fill:#00e5ff;fill-opacity:1;stroke:none;stroke-width:12.95022583;stroke-miterlimit:4;stroke-dasharray:none;stroke-opacity:1"
       id="rect4563-3"
       width="106.06571"
       height="14.699834"
       x="9.0871639"
       y="15.297917"
       inkscape:export-xdpi="96"
       inkscape:export-ydpi="96" />
    <rect
       style="fill:#00e5ff;fill-opacity:1;stroke:none;stroke-width:13.04219818;stroke-miterlimit:4;stroke-dasharray:none;stroke-opacity:1"
       id="rect4563-3-2"
       width="107.57762"
       height="14.699835"
       x="9.0871639"
       y="170.5815"
       inkscape:export-xdpi="96"
       inkscape:export-ydpi="96" />
    <path
       id="rect4563-2-1"
       transform="scale(0.26458333)"
       style="fill:#00e5ff;fill-opacity:1;stroke:none;stroke-width:56.95251083;stroke-miterlimit:4;stroke-dasharray:none;stroke-opacity:1"
       d="m 119.39453,126.01953 v 136.37305 c 0.13575,-0.0925 0.26826,-0.19031 0.40625,-0.2793 1.25013,-0.80622 2.56399,-1.51641 3.77734,-2.37695 0.47346,-0.33578 1.64072,-1.61136 2.10352,-2.10352 8.38954,-6.78265 16.89071,-13.43328 25.46289,-19.98633 7.05232,-5.09252 14.16034,-10.12979 20.93555,-15.59179 2.31705,-1.86795 4.61404,-3.76111 6.91406,-5.65039 v -90.38477 z m 59.59961,114.20899 c -5.43439,4.17794 -11.01225,8.17203 -16.57422,12.17382 -5.69072,4.34688 -11.35704,8.73048 -16.97461,13.17188 -2.15643,1.70493 -4.27651,3.45597 -6.42578,5.16992 -0.18312,0.14604 -0.34552,0.47599 -0.57031,0.41016 -0.01,-0.003 -0.011,-0.008 -0.0176,-0.0117 -1.72139,1.71091 -2.56931,2.6002 -4.96094,4.31054 -1.42981,1.02253 -7.85351,4.83639 -8.9707,5.45899 -0.16607,0.0926 0.26951,-0.26824 0.4043,-0.40234 -1.60714,1.1324 -3.21513,2.26408 -4.82227,3.39648 -0.22953,0.17391 -0.45803,0.34942 -0.6875,0.52344 v 39.93554 c 0.50677,-0.34365 0.96137,-0.65796 1.5,-1.01953 2.60594,-1.74931 5.30188,-3.36366 7.90235,-5.12109 0.63975,-0.43236 1.18142,-0.99842 1.8125,-1.44336 3.00076,-2.11567 6.32684,-3.75177 9.16015,-6.11719 2.35668,-1.56372 4.72302,-3.11168 7.07031,-4.68945 3.3932,-2.2808 3.78616,-2.72141 7.64258,-5.38086 2.78492,-1.92053 5.39142,-3.44164 7.89258,-5.72461 2.25668,-1.67725 7.01277,-5.27676 9.93945,-7.21289 1.38379,-1.52127 1.26648,-1.34657 3.10547,-3.01758 1.86246,-1.25516 2.70231,-1.84868 2.95313,-2 0.20867,-0.4907 0.39297,-0.90101 0.62109,-1.45508 z m -0.66602,42.51757 c -0.29938,0.29922 -1.24747,1.15118 -2.12304,2.25586 -0.97113,1.22525 -1.54569,6.3398 2.12304,-2.25586 z m 0.66602,22.91016 c -0.1283,0.0915 1.00116,-0.75499 -5.53711,4.11133 -2.67486,2.40434 -5.71072,4.22881 -8.66211,6.26758 -4.64243,3.2069 -3.28352,2.44411 -7.375,5.19726 -2.44992,1.64855 -4.91906,3.26864 -7.3789,4.90235 -10.28003,6.89532 -20.44674,13.70166 -30.64649,20.91796 v 284.92969 h 59.59961 z"
       inkscape:export-xdpi="96"
       inkscape:export-ydpi="96"
       inkscape:connector-curvature="0" />
    <path
       id="rect4563-2-1-6"
       transform="scale(0.26458333)"
       style="fill:#00e5ff;fill-opacity:1;stroke:none;stroke-width:43.72872543;stroke-miterlimit:4;stroke-dasharray:none;stroke-opacity:1"
       d="M 347.76953,378.92188 136.85156,589.83984 178.99414,631.98242 389.91211,421.06445 Z"
       inkscape:export-xdpi="96"
       inkscape:export-ydpi="96"
       inkscape:connector-curvature="0" />
    <path
       id="rect4563-3-5"
       transform="scale(0.26458333)"
       style="fill:#00e5ff;fill-opacity:1;stroke:none;stroke-width:61.96273804;stroke-miterlimit:4;stroke-dasharray:none;stroke-opacity:1"
       d="M 34.345703,57.818359 V 326.62695 c 4.518743,-3.96508 9.422274,-8.10992 13.966797,-11.96875 l 4.787109,-3.84765 c 0.115139,-0.13548 0.227025,-0.53082 0.345703,-0.41016 -0.0044,-0.006 -0.0092,-0.0116 -0.01367,-0.0176 -0.511635,-0.68843 1.376827,-1.75611 2.158203,-1.40234 1.32392,0.59941 2.572087,1.37995 3.787109,2.23633 -0.467607,-6.72155 2.21891,-7.08374 10.800781,-13.32227 6.671491,-4.66276 13.221388,-9.49767 19.726563,-14.39453 V 57.818359 Z M 59.376953,311.2168 c 0.110684,1.591 0.402565,3.57625 0.832031,6.04492 2.241479,1.99312 4.473063,3.99561 6.271485,6.37109 0.384428,0.50778 -0.112936,0.94686 -0.994141,1.34961 -0.275327,1.17568 -3.378485,2.63846 -3.59375,1.46875 -0.01759,-0.0956 -0.02747,-0.15336 -0.04492,-0.24805 -2.527655,0.77094 -4.546861,1.53669 -1.515625,2.61133 -4.449165,3.77779 -8.966725,7.47477 -13.371093,11.30469 -1.598359,1.38989 -2.85975,3.38711 -4.707032,4.56641 -0.428152,0.32764 -0.924982,0.56688 -1.318359,0.93554 -1.850816,1.73456 -3.3866,3.52005 -5.775391,4.60938 -0.176641,0.12516 -0.511726,0.42624 -0.708984,0.57422 -0.03578,0.0356 -0.06946,0.0643 -0.105469,0.0996 v 36.96875 c 5.0966,-3.59772 10.10207,-7.32835 15.210938,-10.91016 4.966817,-3.91398 4.880403,-3.907 10.753906,-8.20117 1.74127,-1.27306 3.561544,-2.43653 5.269531,-3.75391 0.422204,-0.32564 0.71907,-0.79069 1.103516,-1.16015 1.226097,-1.17833 2.436296,-2.37473 3.726562,-3.48243 2.261382,-1.94139 4.614791,-3.77329 6.921875,-5.66015 17.756491,-13.35535 2.284552,-1.88834 12.572266,-9.17383 v -38.91602 c -2.917587,2.12552 -5.848994,4.23194 -8.806641,6.30079 -2.823587,2.05256 -5.020705,6.68841 -8.470703,6.15625 -5.087373,-0.78474 -8.94641,-4.82222 -13.25,-7.85547 z m 0.832031,6.04492 c -0.458706,-0.40788 -0.91304,-0.81844 -1.36914,-1.22852 0.475461,0.494 0.951757,0.98699 1.414062,1.49024 -0.01526,-0.087 -0.03,-0.17594 -0.04492,-0.26172 z m -1.36914,-1.22852 c -1.805996,-1.8764 -3.666306,-3.71399 -5.390625,-5.63281 -0.0013,-0.001 -0.0026,10e-4 -0.0039,0 1.55425,2.08708 3.447846,3.88256 5.394532,5.63281 z m 31.064453,52.44336 c -0.964672,0.73024 0.0064,-2.6e-4 -1.396485,1.0586 -2.108903,1.73113 -4.258638,3.41302 -6.326171,5.19336 -1.042133,0.89737 -1.877378,2.02756 -2.958985,2.87695 -6.004206,4.71509 -12.173376,9.2014 -18.162109,13.93359 -8.433971,6.03421 -16.711744,12.29035 -25.451172,17.87891 3.701515,-4.62979 1.450763,-2.73932 -1.263672,-0.25 v 291.10742 h 55.558594 z"
       inkscape:export-xdpi="96"
       inkscape:export-ydpi="96"
       inkscape:connector-curvature="0" />
    <rect
       style="fill:#00e5ff;fill-opacity:1;stroke:none;stroke-width:4.87512922;stroke-miterlimit:4;stroke-dasharray:none;stroke-opacity:1"
       id="rect4563-2-1-9"
       width="15.768903"
       height="14.012108"
       x="92.013824"
       y="100.25652"
       inkscape:export-xdpi="96"
       inkscape:export-ydpi="96" />
    <rect
       style="display:inline;fill:#00e5ff;fill-opacity:1;stroke:none;stroke-width:11.56989193;stroke-miterlimit:4;stroke-dasharray:none;stroke-opacity:1"
       id="rect4563-2-1-6-3"
       width="15.768903"
       height="78.920486"
       x="-10.447069"
       y="147.10596"
       transform="rotate(-45)"
       inkscape:export-xdpi="96"
       inkscape:export-ydpi="96" />
    <rect
       style="display:inline;fill:#00e5ff;fill-opacity:1;stroke:none;stroke-width:15.06868649;stroke-miterlimit:4;stroke-dasharray:none;stroke-opacity:1"
       id="rect4563-2-1-98"
       width="15.768903"
       height="133.86961"
       x="152.43765"
       y="33.342419"
       inkscape:export-xdpi="96"
       inkscape:export-ydpi="96" />
  </g>
</svg>
