<?xml version="1.0" encoding="UTF-8" standalone="no"?>
<!-- Created with Inkscape (http://www.inkscape.org/) -->

<svg
   xmlns:dc="http://purl.org/dc/elements/1.1/"
   xmlns:cc="http://creativecommons.org/ns#"
   xmlns:rdf="http://www.w3.org/1999/02/22-rdf-syntax-ns#"
   xmlns:svg="http://www.w3.org/2000/svg"
   xmlns="http://www.w3.org/2000/svg"
   xmlns:sodipodi="http://sodipodi.sourceforge.net/DTD/sodipodi-0.dtd"
   xmlns:inkscape="http://www.inkscape.org/namespaces/inkscape"
   width="210mm"
   height="297mm"
   viewBox="0 0 210 297"
   version="1.1"
   id="svg8"
   inkscape:version="0.92.4 (5da689c313, 2019-01-14)"
   sodipodi:docname="Chillwatcher-Logo-5.svg"
   inkscape:export-filename="F:\Git - Projekte\Chillwatcher\img\Logo\Chillwatcher-Logo.png"
   inkscape:export-xdpi="96"
   inkscape:export-ydpi="96">
  <defs
     id="defs2" />
  <sodipodi:namedview
     id="base"
     pagecolor="#ffffff"
     bordercolor="#666666"
     borderopacity="1.0"
     inkscape:pageopacity="0.0"
     inkscape:pageshadow="2"
     inkscape:zoom="1.4"
     inkscape:cx="251.0079"
     inkscape:cy="703.69108"
     inkscape:document-units="mm"
     inkscape:current-layer="layer1"
     showgrid="false"
     inkscape:window-width="3840"
     inkscape:window-height="2126"
     inkscape:window-x="-11"
     inkscape:window-y="-11"
     inkscape:window-maximized="1"
     inkscape:snap-grids="true" />
  <metadata
     id="metadata5">
    <rdf:RDF>
      <cc:Work
         rdf:about="">
        <dc:format>image/svg+xml</dc:format>
        <dc:type
           rdf:resource="http://purl.org/dc/dcmitype/StillImage" />
        <dc:title></dc:title>
      </cc:Work>
    </rdf:RDF>
  </metadata>
  <g
     inkscape:label="Ebene 1"
     inkscape:groupmode="layer"
     id="layer1"
     style="display:inline">
    <flowRoot
       xml:space="preserve"
       id="flowRoot3721"
       style="font-style:normal;font-weight:normal;font-size:40px;line-height:1.25;font-family:sans-serif;letter-spacing:0px;word-spacing:0px;fill:#000000;fill-opacity:1;stroke:none"
       transform="scale(0.26458333)"><flowRegion
         id="flowRegion3723"><rect
           id="rect3725"
           width="248.57143"
           height="248.57143"
           x="122.85714"
           y="116.8054" /></flowRegion><flowPara
         id="flowPara3727"
         style="font-size:192px">CW</flowPara></flowRoot>    <rect
       style="fill:#213564;fill-opacity:1;stroke:none;stroke-width:12.95022583;stroke-miterlimit:4;stroke-dasharray:none;stroke-opacity:1"
       id="rect4563-3"
       width="106.06571"
       height="14.699834"
       x="9.0871639"
       y="15.297917" />
    <rect
       style="fill:#213564;fill-opacity:1;stroke:none;stroke-width:13.04219818;stroke-miterlimit:4;stroke-dasharray:none;stroke-opacity:1"
       id="rect4563-3-2"
       width="107.57762"
       height="14.699835"
       x="9.0871639"
       y="170.5815" />
    <path
       id="rect4563-2"
       transform="scale(0.26458333)"
       style="fill:#213564;fill-opacity:1;stroke:none;stroke-width:57.07299042;stroke-miterlimit:4;stroke-dasharray:none;stroke-opacity:1"
       d="m 113.64258,125.5 v 152.77734 c 4.45566,-2.63689 8.89478,-5.29921 13.45508,-7.76953 -0.2188,0.10024 -0.85596,0.43507 -0.65625,0.30078 1.70148,-1.1442 3.41043,-2.27791 5.16797,-3.33398 2.95847,-1.87853 6.18319,-3.29269 9.1875,-5.08984 0.10051,-0.0601 0.0842,-0.23566 0.18164,-0.30079 1.31298,-0.87794 2.67953,-1.67167 4.01953,-2.50781 1.53658,-1.14267 3.45215,-1.54248 5.09961,-2.46484 1.0074,-0.56402 1.95697,-1.22726 2.95898,-1.80078 1.4271,-0.81684 2.91007,-1.53671 4.32813,-2.36914 0.51123,-0.3001 1.79986,-1.50427 1.45312,-1.02344 -0.47825,0.66319 -1.24348,1.0608 -1.86523,1.5918 16.12001,-6.38797 10.77329,-3.03616 5.875,-3.61133 -0.22334,-0.0262 0.0538,-0.10027 0.40234,-0.1875 8.26501,-6.03728 -1.32231,1.58191 4.41406,-3.04492 2.48438,-1.9205 0.91007,-0.53789 4.22071,-2.90625 0.11126,-0.0796 0.16052,-0.22276 0.24023,-0.33399 0.38102,-0.2797 0.72466,-0.62377 1.11523,-0.88672 V 125.5 Z m 59.59765,139.88281 c -0.18744,0.10889 -0.3032,0.18351 -0.51562,0.30469 -0.18127,0.10339 -2.63125,1.49162 -3.58984,1.68945 -1.59389,1.32973 -4.98061,2.99217 -6.6211,3.91797 -2.62761,1.48289 -5.10059,3.09522 -7.91797,4.17969 -7.6158,4.30593 4.66423,-2.7447 -4.86132,3.18945 -4.53473,2.825 -9.65762,4.74059 -13.80469,8.17969 -6.88423,3.71395 -13.47283,7.90953 -20.28516,11.74609 -0.66153,0.34676 -1.33956,0.66321 -2.00195,1.00782 v 26.84179 c 0.14081,-0.0668 0.3567,-0.18107 0.47851,-0.23633 0.82637,-0.37479 1.38567,-0.60646 1.84571,-0.7871 1.8276,-1.46717 4.28285,-2.41429 5.9707,-2.90625 0.84201,-0.55615 1.25561,-0.7078 3.36719,-1.73829 0.11815,-0.0576 -0.25241,0.0717 -0.37891,0.10743 -0.30478,0.16698 -0.60928,0.33302 -0.91406,0.5 -0.0483,0.0162 -0.1856,0.0814 -0.14649,0.0488 4.79616,-3.99728 -0.26563,-0.0252 7.26758,-3.52539 0.20519,-0.0953 -0.17815,-0.55352 0.01,-0.67968 1.51863,-1.02012 3.22924,-1.71971 4.84375,-2.58008 -1.68904,7.04325 6.00642,-5.33956 6.76562,-3.58985 0.66783,-0.51081 1.34842,-1.00401 2.05469,-1.45898 2.77704,-1.78896 4.26276,-2.32869 6.88086,-3.36719 0.0205,-0.19779 0.0518,-0.41843 0.0684,-0.60937 0.0905,-1.04152 1.43621,-1.15474 2.67969,-1.36524 -0.0602,-0.0965 0.48262,-0.28746 0.77929,-0.43945 2.74042,-1.66788 2.71392,-1.91 6.74414,-2.25977 0.14708,-0.0128 0.38133,0.006 0.60547,0.0215 -2.53812,-0.25333 -2.01303,0.0965 2.4043,-2.21875 -1.63389,1.50962 0.0948,0.11908 1.48828,-0.98438 0.42907,-0.54483 1.17626,-1.31433 1.71094,-1.5 0.30986,-0.1076 0.91603,-0.24598 1.5918,-0.39062 -0.0212,-0.0166 0.046,-0.0833 0.15039,-0.16992 -0.55759,0.0884 0.15569,-0.0259 -0.50196,0.0781 0.37155,-0.30953 0.94399,-0.57958 1.54492,-0.81836 1.11306,-0.73041 1.74435,-1.12197 2.28711,-1.38476 z m 0,30.39649 c -0.57734,0.0925 -0.95669,0.15395 -2.5039,0.40039 -0.29158,0.0934 -0.49759,0.16654 -0.81445,0.26562 1.10392,-0.23252 2.36539,-0.46777 3.31835,-0.63867 z m -14.15625,8.44531 c -0.35126,6e-5 -0.74986,0.21026 -1.20507,0.67773 -4.12534,4.23645 2.6649,11.5721 3.08007,17.47071 0.0465,0.66092 -1.19232,0.5754 -1.78906,0.86328 -3.09903,1.0365 0.29411,-0.17925 -3.97851,1.7539 -0.24371,0.11025 -0.55307,0.0644 -0.77149,0.21875 -1.03043,0.72849 -1.88762,1.6867 -2.92969,2.39844 -2.08976,1.42735 -4.70573,1.98915 -6.77539,3.42774 -5.17549,2.75392 -4.90615,2.72949 -8.13867,3.99218 -0.78976,0.79506 -1.13816,0.94039 -2.87695,2.21875 -0.45258,0.21979 -0.89723,0.45814 -1.35156,0.67383 -0.39933,0.33598 -0.85628,0.72516 -0.76563,0.40235 0.007,-0.0246 0.0303,-0.0522 0.043,-0.0781 -1.17305,0.99406 -0.44566,0.53723 -2.73828,1.74805 -0.26346,0.0445 -0.52724,0.0861 -0.79102,0.1289 -0.10646,0.10253 -0.42928,0.28907 -1.35742,0.86329 -0.74845,0.36664 -1.47968,0.77214 -2.24609,1.0996 -2.54856,1.08893 -2.1243,0.53368 -4.68555,1.91993 -0.70557,0.38188 -1.32888,0.90229 -2.01953,1.31054 -2.15558,1.27422 -1.79568,0.96218 -1.12305,0.47071 -0.51638,0.35733 -2.01591,1.37296 -3.02148,2.05859 v 285.76172 h 59.59765 V 315.98828 c -5.14972,2.70926 -2.97967,1.74343 -6.6914,2.63477 -0.37047,0.33573 -0.90833,0.53559 -1.31055,0.8457 -1.09134,0.68779 -1.84785,1.1747 -3.00586,1.7168 -0.54909,0.38075 -1.52928,0.65787 -1.13672,0.49804 0.43222,-0.17597 0.79589,-0.33849 1.13672,-0.49804 0.21545,-0.1494 0.37506,-0.30933 0.34375,-0.47266 -0.0351,-0.18288 -0.0593,-0.44608 -0.0918,-0.64844 -0.0901,0.018 -0.17955,0.0408 -0.26954,0.0586 -0.33632,0.0663 -1.35758,0.0831 -1.02929,-0.0156 0.51029,-0.15337 0.80981,-0.23239 1.25195,-0.36133 -0.7696,-5.17925 -0.89469,-15.52187 -3.35352,-15.52148 z m 3.35352,15.52148 c 0.0154,0.10376 0.0309,0.21893 0.0469,0.31836 0.96353,-0.19275 1.9303,-0.40135 2.83789,-0.77343 0.20339,-0.0834 0.48121,-0.31184 0.75195,-0.54688 -0.86996,0.21687 -2.06835,0.54458 -3.63672,1.00195 z m -10,-13.86718 c -0.029,-0.005 -0.0509,-0.005 -0.0488,0.0176 0.001,0.0151 0.006,0.0337 0.008,0.0488 0.0472,-0.019 0.0789,-0.0314 0.12696,-0.0508 -0.0227,5.4e-4 -0.057,-0.0106 -0.0859,-0.0156 z m -34.28125,18.63476 c -0.27771,0.0346 -0.55561,0.21016 -0.83203,0.46875 0.26757,-0.0281 0.11026,0.0822 0.83203,-0.46875 z m 13.88672,9.27735 c -0.0393,-0.002 -0.12381,0.0714 -0.26563,0.24023 -3.03222,3.6086 -3.69938,4.96951 -3.76562,5.5332 0.45,-0.24549 0.87703,-0.52006 1.23047,-0.88867 1.068,-1.11386 3.07556,-4.86814 2.80078,-4.88476 z m 5.56836,0.125 c -0.30762,0.341 -0.50386,0.54701 -0.7168,0.77148 0.44629,-0.40503 0.97579,-1.05859 0.7168,-0.77148 z m -2.19531,1.56445 c -0.71192,0.27622 -1.22315,0.47362 -2.27735,0.88476 -0.86583,0.33769 0.88785,-0.29577 2.27735,-0.88476 z m -9.5,5 c -0.6601,0.10934 -1.32009,0.21853 -1.97657,0.34765 -0.48188,0.0948 1.00978,0.0342 1.46485,-0.15039 0.16702,-0.0678 0.34083,-0.13192 0.51172,-0.19726 z" />
    <rect
       style="fill:#213564;fill-opacity:1;stroke:none;stroke-width:15.06868553;stroke-miterlimit:4;stroke-dasharray:none;stroke-opacity:1"
       id="rect4563-2-1"
       width="15.768903"
       height="133.86961"
       x="65.229897"
       y="33.342415" />
    <rect
       style="fill:#213564;fill-opacity:1;stroke:none;stroke-width:11.56989193;stroke-miterlimit:4;stroke-dasharray:none;stroke-opacity:1"
       id="rect4563-2-1-6"
       width="15.768903"
       height="78.920486"
       x="-175.51157"
       y="-60.96196"
       transform="rotate(-135)" />
    <path
       id="rect4563-3-5"
       transform="scale(0.26458333)"
       style="fill:#213564;fill-opacity:1;stroke:none;stroke-width:61.96273804;stroke-miterlimit:4;stroke-dasharray:none;stroke-opacity:1"
       d="M 34.345703,57.818359 V 325.27344 c 7.50773,-4.53386 14.298273,-8.42855 22.148438,-12.99024 3.395489,-2.02748 6.796322,-4.04929 10.1875,-6.08398 1.338723,-0.80323 2.667572,-1.61927 4.001953,-2.42969 0.196067,0.42065 0.373029,0.89935 0.541015,1.4043 2.909637,1.2387 5.209363,6.48463 8.123047,10.0625 -1.871851,-3.959 -6.102738,-8.98508 -5.865234,-12.96485 0.0064,-0.1065 10.395257,-6.11778 11.373047,-6.68554 1.652436,-1.06226 3.346353,-2.05589 5.048828,-3.03516 V 57.818359 Z M 79.347656,315.23633 c 0.712503,1.50695 1.07579,2.85704 0.726563,3.9375 0.0913,0.15589 0.17671,0.31296 0.25,0.46875 2.399138,5.09973 -27.711679,0.41133 -14.5,8.69726 -4.591525,2.66765 -9.19485,5.31413 -13.773438,8.00391 -3.398823,1.99671 -6.729381,4.10994 -10.158203,6.05469 -2.494803,1.41499 -5.019724,2.77656 -7.546875,4.13281 v 24.55078 c 0.0033,-0.001 0.0085,-0.003 0.01172,-0.004 0.588812,-0.42156 1.166568,-0.87122 1.832031,-1.15039 0.65084,-0.27303 1.326841,-0.4781 2.007813,-0.66796 0.707135,-0.60072 1.23751,-0.92683 2.455078,-1.67969 -1.5937,1.11827 3.505869,-1.79312 4.417968,-2.06446 2.367333,-1.69257 2.934591,-1.95944 7.189454,-4.42773 1.688904,-0.76235 5.174576,-2.96573 7.220703,-2.99414 1.731473,-0.0242 6.453778,1.58466 5.177734,0.41406 -3.148664,-2.88847 -9.115579,1.58614 -2.556641,-2.42773 0.501986,-0.33895 0.989395,-0.70113 1.50586,-1.01758 1.945092,-1.19181 3.923122,-2.32843 5.876953,-3.50586 3.948397,-2.37939 4.637238,-3.05358 8.554687,-4.76367 0.704769,-0.30765 1.474628,-0.44887 2.179688,-0.75586 0.431962,-0.18807 -0.903339,0.26401 -1.355469,0.39648 0.578396,-0.38905 1.13704,-0.80671 1.734375,-1.16601 0.797137,-0.47948 1.631928,-0.8963 2.445313,-1.34766 0.04327,-0.024 0.126623,-0.0776 0.189453,-0.11523 2.123076,-1.46903 1.900196,-1.26153 4.5,-2.13086 0.770294,-0.59629 1.447687,-1.02431 2.171875,-1.45899 v -26.08789 c -0.157861,0.0923 -0.316968,0.18271 -0.474609,0.27539 -2.170704,1.27617 -4.181481,4.847 -6.496094,3.85547 -1.326706,-0.56833 -2.496952,-1.68426 -3.585938,-3.02148 z m 0.726563,3.9375 c -1.292682,-2.20728 -4.298038,-4.40599 -7.105469,-6.44531 1.048945,5.19409 2.267866,9.87503 5.650391,8.06445 0.795522,-0.42583 1.247431,-0.97672 1.455078,-1.61914 z m -7.105469,-6.44531 c -0.535848,-2.65338 -1.03473,-5.4223 -1.744141,-7.55469 -0.903274,-0.38455 -1.864864,-0.38424 -2.923828,0.17773 -3.193655,1.69482 0.50418,4.35237 4.667969,7.37696 z m 16.935547,48.53906 c -0.294475,0.19317 -0.574619,0.41166 -0.830078,0.67969 -1.067896,0.55909 -2.136375,1.11645 -3.203125,1.67773 0.03902,-0.0163 0.07829,-0.0323 0.117187,-0.0488 0.203225,-0.0861 -0.786934,0.40002 -0.591797,0.29688 0.157839,-0.0834 0.316623,-0.16492 0.47461,-0.24805 -0.64409,0.26866 -1.302191,0.51368 -1.910156,0.85547 -1.698558,0.95492 -3.319517,2.04014 -4.990235,3.04297 -6.603469,3.96364 -3.048552,1.65403 -7.183594,4.40234 -10.501012,6.41131 15.628841,-9.18249 -13.11914,4.16211 -1.374596,0.63808 3.027703,0.22236 4.542969,0.19727 0.03334,-5.6e-4 0.08898,-0.0216 0.132812,-0.0312 1.832775,-0.90409 0.607002,-0.13324 0,0 -0.446401,0.2202 -0.868208,0.42574 -1.765625,0.89843 -1.501005,0.87056 -3.002901,1.74276 -4.503906,2.61328 -0.428259,-0.0771 -0.904975,-0.44766 -1.283203,-0.23242 -1.800405,1.02422 -3.326461,2.47197 -4.939454,3.77149 0.22513,-0.1159 0.450117,-0.23409 0.679688,-0.33985 0.22978,-0.1059 -0.876713,0.49859 -0.679688,0.33985 -0.2913,0.14997 -0.585912,0.29186 -0.890624,0.41015 -0.35444,0.27109 -0.701616,0.53572 -0.56836,0.29688 0.432813,-0.77582 1.202651,-1.30863 1.779297,-1.98438 0.05518,-0.0646 0.175252,-0.28413 0.109375,-0.23046 -6.24892,5.09572 -4.536861,4.92689 -7.089844,5.06445 -0.168804,0.12089 -0.332326,0.25024 -0.507812,0.36133 -0.54627,0.34582 -1.37222,1.43592 -1.722656,0.89257 -0.06308,-0.0979 0.795903,-0.6504 1.318359,-0.9414 0.08543,-0.0772 0.248472,-0.22038 0.304687,-0.27344 -0.05124,0.003 -0.09058,0.006 -0.144531,0.01 -0.440509,0.2776 -1.582977,1.07673 -3.984375,2.72265 -0.326664,0.22375 1.364828,-0.80043 1.03711,-0.57812 -1.911593,1.29692 -4.04601,2.23279 -6.146485,3.22461 v 307.99609 h 55.558594 z m -44.078125,24.40039 c -0.232936,0.15966 -0.45626,0.33334 -0.681641,0.50391 0.06031,-0.0274 0.123756,-0.0477 0.183594,-0.0762 0.197329,-0.0937 0.678277,-0.55128 0.498047,-0.42773 z m -2.09375,1.07226 c 0.0022,-0.0128 -0.05089,0.0174 -0.109375,0.0508 0.03263,-0.0122 0.06502,-0.0249 0.09766,-0.0371 9.16e-4,-0.002 0.01148,-0.0123 0.01172,-0.0137 z m -0.447266,0.17969 c -0.661678,0.0479 -1.464786,0.1188 -2.59375,0.26367 -0.708087,0.0907 1.427398,-0.0612 2.140625,-0.0918 0.150022,-0.0599 0.302017,-0.11446 0.453125,-0.17188 z" />
    <rect
       style="fill:#213564;fill-opacity:1;stroke:none;stroke-width:4.87512922;stroke-miterlimit:4;stroke-dasharray:none;stroke-opacity:1"
       id="rect4563-2-1-9"
       width="15.768903"
       height="14.012108"
       x="125.65371"
       y="100.25652" />
    <rect
       style="display:inline;fill:#213564;fill-opacity:1;stroke:none;stroke-width:11.56989193;stroke-miterlimit:4;stroke-dasharray:none;stroke-opacity:1"
       id="rect4563-2-1-6-3"
       width="15.768903"
       height="78.920486"
       x="13.339919"
       y="170.89296"
       transform="rotate(-45)" />
    <rect
       style="display:inline;fill:#213564;fill-opacity:1;stroke:none;stroke-width:15.06868649;stroke-miterlimit:4;stroke-dasharray:none;stroke-opacity:1"
       id="rect4563-2-1-98"
       width="15.768903"
       height="133.86961"
       x="186.07753"
       y="33.342419" />
  </g>
</svg>
