<?xml version="1.0" encoding="UTF-8" standalone="no"?>
<!-- Created with Inkscape (http://www.inkscape.org/) -->

<svg
   xmlns:dc="http://purl.org/dc/elements/1.1/"
   xmlns:cc="http://creativecommons.org/ns#"
   xmlns:rdf="http://www.w3.org/1999/02/22-rdf-syntax-ns#"
   xmlns:svg="http://www.w3.org/2000/svg"
   xmlns="http://www.w3.org/2000/svg"
   xmlns:sodipodi="http://sodipodi.sourceforge.net/DTD/sodipodi-0.dtd"
   xmlns:inkscape="http://www.inkscape.org/namespaces/inkscape"
   width="264.58334mm"
   height="264.58334mm"
   viewBox="0 0 264.58333 264.58334"
   version="1.1"
   id="svg8"
   inkscape:version="0.92.4 (5da689c313, 2019-01-14)"
   sodipodi:docname="Chillwatcher-Logo-Quadrat-Kreis.svg"
   inkscape:export-filename="D:\ChillWatcher\img\Logo\Chillwatcher-Logo-Quadrat-Kreis.png"
   inkscape:export-xdpi="96"
   inkscape:export-ydpi="96">
  <defs
     id="defs2" />
  <sodipodi:namedview
     id="base"
     pagecolor="#ffffff"
     bordercolor="#666666"
     borderopacity="1.0"
     inkscape:pageopacity="0.0"
     inkscape:pageshadow="2"
     inkscape:zoom="0.7"
     inkscape:cx="389.15692"
     inkscape:cy="491.88231"
     inkscape:document-units="mm"
     inkscape:current-layer="layer1"
     showgrid="false"
     inkscape:window-width="1920"
     inkscape:window-height="1046"
     inkscape:window-x="-11"
     inkscape:window-y="-11"
     inkscape:window-maximized="1"
     inkscape:snap-grids="true"
     showguides="false"
     inkscape:guide-bbox="true">
    <inkscape:grid
       type="xygrid"
       id="grid5221"
       originx="0"
       originy="38.175606" />
  </sodipodi:namedview>
  <metadata
     id="metadata5">
    <rdf:RDF>
      <cc:Work
         rdf:about="">
        <dc:format>image/svg+xml</dc:format>
        <dc:type
           rdf:resource="http://purl.org/dc/dcmitype/StillImage" />
        <dc:title></dc:title>
      </cc:Work>
    </rdf:RDF>
  </metadata>
  <g
     inkscape:label="Ebene 1"
     inkscape:groupmode="layer"
     id="layer1"
     style="display:inline"
     transform="translate(-0.01573573,25.578791)">
    <rect
       style="fill:#282828;fill-opacity:1;stroke-width:0.35002169"
       id="rect4674"
       width="264.58334"
       height="264.58334"
       x="0.015735731"
       y="-25.578791" />
    <flowRoot
       xml:space="preserve"
       id="flowRoot3721"
       style="font-style:normal;font-weight:normal;font-size:40px;line-height:1.25;font-family:sans-serif;letter-spacing:0px;word-spacing:0px;fill:#000000;fill-opacity:1;stroke:none"
       transform="scale(0.26458333)"><flowRegion
         id="flowRegion3723"><rect
           id="rect3725"
           width="248.57143"
           height="248.57143"
           x="122.85714"
           y="116.8054" /></flowRegion><flowPara
         id="flowPara3727"
         style="font-size:192px">CW</flowPara></flowRoot>    <rect
       style="fill:#00a2ff;fill-opacity:1;stroke:none;stroke-width:12.95022583;stroke-miterlimit:4;stroke-dasharray:none;stroke-opacity:1"
       id="rect4563-3"
       width="106.06571"
       height="14.699834"
       x="52.554428"
       y="20.211609"
       inkscape:export-xdpi="96"
       inkscape:export-ydpi="96" />
    <rect
       style="fill:#00a2ff;fill-opacity:1;stroke:none;stroke-width:13.04219818;stroke-miterlimit:4;stroke-dasharray:none;stroke-opacity:1"
       id="rect4563-3-2"
       width="107.57762"
       height="14.699835"
       x="52.554428"
       y="175.49518"
       inkscape:export-xdpi="96"
       inkscape:export-ydpi="96" />
    <path
       id="rect4563-2-1"
       style="fill:#00a2ff;fill-opacity:1;stroke:none;stroke-width:15.06868458;stroke-miterlimit:4;stroke-dasharray:none;stroke-opacity:1"
       d="m 75.057065,38.256357 v 36.082036 c 0.03592,-0.02447 0.07098,-0.05035 0.107487,-0.0739 0.330763,-0.213312 0.678389,-0.401217 0.999421,-0.628901 0.12527,-0.08884 0.434107,-0.426339 0.556556,-0.556557 2.219733,-1.794576 4.469001,-3.554222 6.737057,-5.288049 1.865926,-1.347396 3.74659,-2.680174 5.539197,-4.125328 0.613053,-0.494229 1.220798,-0.995127 1.829345,-1.494999 V 38.256357 Z m 15.769063,30.217795 c -1.437849,1.105414 -2.913658,2.162183 -4.385262,3.22099 -1.50567,1.150112 -3.004884,2.30994 -4.491199,3.48506 -0.570555,0.451096 -1.131493,0.914392 -1.700154,1.367875 -0.04845,0.03864 -0.09142,0.125939 -0.150895,0.108521 -0.0026,-7.94e-4 -0.0029,-0.0021 -0.0047,-0.0031 -0.455452,0.452678 -0.679797,0.687969 -1.312582,1.140497 -0.378304,0.270544 -2.077908,1.279628 -2.373498,1.444357 -0.04394,0.0245 0.07131,-0.07097 0.106971,-0.106452 -0.425223,0.299614 -0.85067,0.599038 -1.275892,0.898652 -0.06073,0.04601 -0.121187,0.09245 -0.181901,0.138493 v 10.566279 c 0.134083,-0.09092 0.254362,-0.174086 0.396875,-0.269751 0.689488,-0.462838 1.402789,-0.889968 2.09083,-1.354955 0.169267,-0.114395 0.312584,-0.264165 0.479557,-0.381889 0.793951,-0.559771 1.673976,-0.992656 2.423623,-1.618507 0.623538,-0.413734 1.249632,-0.823298 1.870686,-1.24075 0.897784,-0.603462 1.001755,-0.72004 2.022099,-1.423686 0.736844,-0.50814 1.42648,-0.9106 2.088245,-1.514636 0.59708,-0.443773 1.855463,-1.396143 2.629813,-1.908411 0.366128,-0.402502 0.33509,-0.35628 0.821656,-0.798401 0.492776,-0.332094 0.714986,-0.48913 0.781349,-0.529167 0.05521,-0.129831 0.103973,-0.238392 0.16433,-0.38499 z M 90.64991,79.723593 c -0.07921,0.07917 -0.330059,0.304583 -0.561721,0.596863 -0.256944,0.32418 -0.408963,1.677405 0.561721,-0.596863 z m 0.176218,6.061646 c -0.03395,0.02421 0.26489,-0.199758 -1.465027,1.087789 -0.707723,0.636149 -1.510961,1.118873 -2.29185,1.658298 -1.228309,0.848492 -0.868764,0.64667 -1.951302,1.375108 -0.648208,0.436179 -1.301501,0.864828 -1.952334,1.29708 -2.719924,1.824387 -5.409866,3.625231 -8.10855,5.534544 V 172.1257 h 15.769063 z"
       inkscape:export-xdpi="96"
       inkscape:export-ydpi="96"
       inkscape:connector-curvature="0" />
    <path
       id="rect4563-2-1-6"
       style="fill:#00a2ff;fill-opacity:1;stroke:none;stroke-width:11.56989193;stroke-miterlimit:4;stroke-dasharray:none;stroke-opacity:1"
       d="M 135.48128,105.1701 79.675904,160.97548 90.826128,172.1257 146.6315,116.32032 Z"
       inkscape:export-xdpi="96"
       inkscape:export-ydpi="96"
       inkscape:connector-curvature="0" />
    <path
       id="rect4563-3-5"
       style="fill:#00a2ff;fill-opacity:1;stroke:none;stroke-width:16.39430809;stroke-miterlimit:4;stroke-dasharray:none;stroke-opacity:1"
       d="m 52.554563,20.211465 v 71.122272 c 1.195584,-1.049094 2.492977,-2.14575 3.695382,-3.166732 l 1.266589,-1.018024 c 0.03046,-0.03585 0.06007,-0.140446 0.09147,-0.108522 -0.0012,-0.0016 -0.0024,-0.0031 -0.0036,-0.0047 -0.13537,-0.182147 0.364286,-0.464638 0.571025,-0.371036 0.350287,0.158594 0.680531,0.365112 1.002006,0.591696 -0.123721,-1.778411 0.587086,-1.87424 2.857706,-3.524851 1.765166,-1.233689 3.498159,-2.512925 5.21932,-3.808553 v -59.71155 z m 6.622852,67.045003 c 0.02929,0.420952 0.106512,0.946216 0.220141,1.599385 0.593058,0.527346 1.183498,1.057172 1.65933,1.685684 0.101714,0.13435 -0.02988,0.250524 -0.263033,0.357084 -0.07285,0.311066 -0.893891,0.698093 -0.950846,0.388607 -0.0047,-0.02529 -0.0073,-0.04058 -0.01188,-0.06563 -0.668775,0.203978 -1.203024,0.406583 -0.401009,0.690915 -1.177175,0.99954 -2.372446,1.977699 -3.537769,2.991032 -0.422899,0.367742 -0.756642,0.896173 -1.245402,1.208196 -0.113282,0.08669 -0.244735,0.149987 -0.348816,0.247528 -0.489695,0.458936 -0.896037,0.931347 -1.528072,1.219566 -0.04674,0.03311 -0.135394,0.112776 -0.187585,0.151929 -0.0095,0.0094 -0.01838,0.01701 -0.02791,0.02635 v 9.781316 c 1.348475,-0.9519 2.672839,-1.93896 4.02456,-2.88665 1.314137,-1.03557 1.291273,-1.03372 2.845304,-2.16989 0.460711,-0.33683 0.942326,-0.64466 1.394231,-0.99322 0.111708,-0.0862 0.190253,-0.20921 0.291971,-0.30696 0.324405,-0.31176 0.644604,-0.62831 0.985987,-0.92139 0.598324,-0.513661 1.220996,-0.998351 1.831412,-1.497583 4.698072,-3.533603 0.604455,-0.499623 3.326412,-2.427242 v -10.29653 c -0.771945,0.562377 -1.547546,1.1197 -2.33009,1.667084 -0.747074,0.543073 -1.328395,1.769641 -2.241207,1.628841 -1.346034,-0.207629 -2.367071,-1.275879 -3.505729,-2.078427 z m 0.220141,1.599385 c -0.121366,-0.107918 -0.241575,-0.216546 -0.362252,-0.325046 0.125799,0.130704 0.251819,0.261141 0.374138,0.394293 -0.004,-0.02302 -0.0079,-0.04655 -0.01189,-0.06925 z m -0.362252,-0.325046 c -0.477836,-0.496464 -0.970043,-0.98266 -1.426269,-1.490348 -3.44e-4,-2.64e-4 -6.88e-4,2.65e-4 -10e-4,0 0.411229,0.552207 0.912243,1.027261 1.427303,1.490348 z m 8.219137,13.875643 c -0.255236,0.19321 0.0017,-7e-5 -0.369487,0.28008 -0.55798,0.45803 -1.126764,0.90303 -1.673799,1.37408 -0.275731,0.23743 -0.496723,0.53646 -0.782898,0.76119 -1.588613,1.24754 -3.220873,2.43454 -4.805392,3.6866 -2.231488,1.59655 -4.421648,3.25182 -6.733955,4.73046 0.979359,-1.22497 0.383847,-0.72478 -0.334347,-0.0662 v 77.02217 h 14.699878 z"
       inkscape:export-xdpi="96"
       inkscape:export-ydpi="96"
       inkscape:connector-curvature="0" />
    <rect
       style="fill:#00a2ff;fill-opacity:1;stroke:none;stroke-width:4.87512922;stroke-miterlimit:4;stroke-dasharray:none;stroke-opacity:1"
       id="rect4563-2-1-9"
       width="15.768903"
       height="14.012108"
       x="135.48108"
       y="105.17021"
       inkscape:export-xdpi="96"
       inkscape:export-ydpi="96" />
    <rect
       style="display:inline;fill:#00a2ff;fill-opacity:1;stroke:none;stroke-width:11.56989193;stroke-miterlimit:4;stroke-dasharray:none;stroke-opacity:1"
       id="rect4563-2-1-6-3"
       width="15.768903"
       height="78.920486"
       x="16.814423"
       y="181.31645"
       transform="rotate(-45)"
       inkscape:export-xdpi="96"
       inkscape:export-ydpi="96" />
    <rect
       style="display:inline;fill:#00a2ff;fill-opacity:1;stroke:none;stroke-width:15.06868649;stroke-miterlimit:4;stroke-dasharray:none;stroke-opacity:1"
       id="rect4563-2-1-98"
       width="15.768903"
       height="133.86961"
       x="195.90491"
       y="38.256111"
       inkscape:export-xdpi="96"
       inkscape:export-ydpi="96" />
    <ellipse
       style="opacity:1;fill:none;fill-opacity:1;stroke:#00a2ff;stroke-width:8.19822407;stroke-opacity:1"
       id="path5223"
       cx="133.06335"
       cy="107.09087"
       rx="128.64613"
       ry="128.64612" />
  </g>
</svg>
